<svg width="1000" height="390" viewBox="0 0 1000 390" fill="none" xmlns="http://www.w3.org/2000/svg">
  <rect x="1" y="1" width="998" height="388" rx="18" fill="#0D1117" stroke="#30363D" stroke-width="2"/>

  <g font-family="-apple-system, BlinkMacSystemFont, 'Segoe UI', Helvetica, Arial, sans-serif">
    <text x="32" y="54" fill="#C9D1D9" font-size="18" font-weight="700">Backend &amp; Languages</text>
    <rect x="32" y="72" width="112" height="42" rx="9" fill="#161B22" stroke="#30363D"/>
    <rect x="47" y="87" width="12" height="12" rx="3" fill="#58A6FF"/>
    <text x="70" y="100" fill="#E6EDF3" font-size="16" font-weight="600">Java</text>

    <text x="32" y="158" fill="#C9D1D9" font-size="18" font-weight="700">Frontend</text>
    <rect x="32" y="176" width="135" height="42" rx="9" fill="#161B22" stroke="#30363D"/>
    <rect x="47" y="191" width="12" height="12" rx="3" fill="#58A6FF"/>
    <text x="70" y="204" fill="#E6EDF3" font-size="16" font-weight="600">Angular</text>

    <text x="32" y="262" fill="#C9D1D9" font-size="18" font-weight="700">Game Development &amp; 3D</text>
    <rect x="32" y="280" width="112" height="42" rx="9" fill="#161B22" stroke="#30363D"/>
    <rect x="47" y="295" width="12" height="12" rx="3" fill="#58A6FF"/>
    <text x="70" y="308" fill="#E6EDF3" font-size="16" font-weight="600">Unity</text>

    <rect x="156" y="280" width="126" height="42" rx="9" fill="#161B22" stroke="#30363D"/>
    <rect x="171" y="295" width="12" height="12" rx="3" fill="#58A6FF"/>
    <text x="194" y="308" fill="#E6EDF3" font-size="16" font-weight="600">Blender</text>

    <text x="430" y="54" fill="#C9D1D9" font-size="18" font-weight="700">Cloud &amp; DevOps</text>
    <rect x="430" y="72" width="126" height="42" rx="9" fill="#161B22" stroke="#30363D"/>
    <rect x="445" y="87" width="12" height="12" rx="3" fill="#58A6FF"/>
    <text x="468" y="100" fill="#E6EDF3" font-size="16" font-weight="600">Docker</text>

    <rect x="568" y="72" width="108" height="42" rx="9" fill="#161B22" stroke="#30363D"/>
    <rect x="583" y="87" width="12" height="12" rx="3" fill="#58A6FF"/>
    <text x="606" y="100" fill="#E6EDF3" font-size="16" font-weight="600">AWS</text>

    <rect x="688" y="72" width="118" height="42" rx="9" fill="#161B22" stroke="#30363D"/>
    <rect x="703" y="87" width="12" height="12" rx="3" fill="#58A6FF"/>
    <text x="726" y="100" fill="#E6EDF3" font-size="16" font-weight="600">Azure</text>

    <text x="430" y="176" fill="#8B949E" font-size="15">Building across application development, cloud infrastructure</text>
    <text x="430" y="204" fill="#8B949E" font-size="15">and 3D technologies with a focus on maintainability and scale.</text>
  </g>
</svg>
