<svg width="1000" height="760" viewBox="0 0 1000 760" fill="none" xmlns="http://www.w3.org/2000/svg">
  <rect x="1" y="1" width="998" height="758" rx="18" fill="#0D1117" stroke="#30363D" stroke-width="2"/>
  <path d="M1 54H999" stroke="#30363D" stroke-width="2"/>

  <circle cx="28" cy="28" r="7" fill="#FF5F56"/>
  <circle cx="54" cy="28" r="7" fill="#FFBD2E"/>
  <circle cx="80" cy="28" r="7" fill="#27C93F"/>
  <text x="110" y="34" fill="#8B949E" font-family="ui-monospace, SFMono-Regular, Menlo, Monaco, Consolas, 'Liberation Mono', monospace" font-size="16">alfonso@github:~</text>

  <g font-family="ui-monospace, SFMono-Regular, Menlo, Monaco, Consolas, 'Liberation Mono', monospace">
    <text x="30" y="92" fill="#3FB950" font-size="18">alfonso@github:~$</text>
    <text x="228" y="92" fill="#58A6FF" font-size="18">stack --overview</text>
    <text x="30" y="122" fill="#8B949E" font-size="14">A compact view of the tools I enjoy building with.</text>
  </g>

  <!-- Backend -->
  <rect x="30" y="150" width="450" height="145" rx="14" fill="#11161D" stroke="#30363D"/>
  <rect x="30" y="150" width="5" height="145" rx="2.5" fill="#F2CC60"/>
  <text x="52" y="182" fill="#F2CC60" font-family="ui-monospace, SFMono-Regular, Menlo, Monaco, Consolas, monospace" font-size="14" font-weight="700">BACKEND</text>
  <rect x="52" y="202" width="190" height="66" rx="11" fill="#161B22" stroke="#30363D"/>
  <image href="https://skillicons.dev/icons?i=java&amp;theme=dark" x="64" y="213" width="44" height="44"/>
  <text x="122" y="229" fill="#E6EDF3" font-family="-apple-system,BlinkMacSystemFont,'Segoe UI',Helvetica,Arial,sans-serif" font-size="16" font-weight="700">Java</text>
  <text x="122" y="249" fill="#8B949E" font-family="-apple-system,BlinkMacSystemFont,'Segoe UI',Helvetica,Arial,sans-serif" font-size="12">language / backend</text>

  <!-- Frontend -->
  <rect x="520" y="150" width="450" height="145" rx="14" fill="#11161D" stroke="#30363D"/>
  <rect x="520" y="150" width="5" height="145" rx="2.5" fill="#FF5F87"/>
  <text x="542" y="182" fill="#FF7AA2" font-family="ui-monospace, SFMono-Regular, Menlo, Monaco, Consolas, monospace" font-size="14" font-weight="700">FRONTEND</text>
  <rect x="542" y="202" width="210" height="66" rx="11" fill="#161B22" stroke="#30363D"/>
  <image href="https://skillicons.dev/icons?i=angular&amp;theme=dark" x="554" y="213" width="44" height="44"/>
  <text x="612" y="229" fill="#E6EDF3" font-family="-apple-system,BlinkMacSystemFont,'Segoe UI',Helvetica,Arial,sans-serif" font-size="16" font-weight="700">Angular</text>
  <text x="612" y="249" fill="#8B949E" font-family="-apple-system,BlinkMacSystemFont,'Segoe UI',Helvetica,Arial,sans-serif" font-size="12">frontend framework</text>

  <!-- Databases -->
  <rect x="30" y="315" width="450" height="160" rx="14" fill="#11161D" stroke="#30363D"/>
  <rect x="30" y="315" width="5" height="160" rx="2.5" fill="#3FB950"/>
  <text x="52" y="347" fill="#56D364" font-family="ui-monospace, SFMono-Regular, Menlo, Monaco, Consolas, monospace" font-size="14" font-weight="700">DATABASES</text>

  <rect x="52" y="367" width="184" height="66" rx="11" fill="#161B22" stroke="#30363D"/>
  <image href="https://skillicons.dev/icons?i=mysql&amp;theme=dark" x="64" y="378" width="44" height="44"/>
  <text x="122" y="394" fill="#E6EDF3" font-family="-apple-system,BlinkMacSystemFont,'Segoe UI',Helvetica,Arial,sans-serif" font-size="15" font-weight="700">MySQL</text>
  <text x="122" y="414" fill="#8B949E" font-family="-apple-system,BlinkMacSystemFont,'Segoe UI',Helvetica,Arial,sans-serif" font-size="11">relational DB</text>

  <rect x="246" y="367" width="202" height="66" rx="11" fill="#161B22" stroke="#30363D"/>
  <image href="https://skillicons.dev/icons?i=mongodb&amp;theme=dark" x="258" y="378" width="44" height="44"/>
  <text x="316" y="394" fill="#E6EDF3" font-family="-apple-system,BlinkMacSystemFont,'Segoe UI',Helvetica,Arial,sans-serif" font-size="15" font-weight="700">MongoDB</text>
  <text x="316" y="414" fill="#8B949E" font-family="-apple-system,BlinkMacSystemFont,'Segoe UI',Helvetica,Arial,sans-serif" font-size="11">NoSQL DB</text>

  <!-- Game / 3D -->
  <rect x="520" y="315" width="450" height="160" rx="14" fill="#11161D" stroke="#30363D"/>
  <rect x="520" y="315" width="5" height="160" rx="2.5" fill="#A371F7"/>
  <text x="542" y="347" fill="#D2A8FF" font-family="ui-monospace, SFMono-Regular, Menlo, Monaco, Consolas, monospace" font-size="14" font-weight="700">GAME DEVELOPMENT &amp; 3D</text>

  <rect x="542" y="367" width="184" height="66" rx="11" fill="#161B22" stroke="#30363D"/>
  <image href="https://skillicons.dev/icons?i=unity&amp;theme=dark" x="554" y="378" width="44" height="44"/>
  <text x="612" y="394" fill="#E6EDF3" font-family="-apple-system,BlinkMacSystemFont,'Segoe UI',Helvetica,Arial,sans-serif" font-size="15" font-weight="700">Unity</text>
  <text x="612" y="414" fill="#8B949E" font-family="-apple-system,BlinkMacSystemFont,'Segoe UI',Helvetica,Arial,sans-serif" font-size="11">game engine</text>

  <rect x="736" y="367" width="202" height="66" rx="11" fill="#161B22" stroke="#30363D"/>
  <image href="https://skillicons.dev/icons?i=blender&amp;theme=dark" x="748" y="378" width="44" height="44"/>
  <text x="806" y="394" fill="#E6EDF3" font-family="-apple-system,BlinkMacSystemFont,'Segoe UI',Helvetica,Arial,sans-serif" font-size="15" font-weight="700">Blender</text>
  <text x="806" y="414" fill="#8B949E" font-family="-apple-system,BlinkMacSystemFont,'Segoe UI',Helvetica,Arial,sans-serif" font-size="11">3D creation</text>

  <!-- Cloud / DevOps -->
  <rect x="30" y="495" width="940" height="180" rx="14" fill="#11161D" stroke="#30363D"/>
  <rect x="30" y="495" width="5" height="180" rx="2.5" fill="#58A6FF"/>
  <text x="52" y="527" fill="#79C0FF" font-family="ui-monospace, SFMono-Regular, Menlo, Monaco, Consolas, monospace" font-size="14" font-weight="700">CLOUD &amp; DEVOPS</text>

  <rect x="52" y="547" width="204" height="72" rx="11" fill="#161B22" stroke="#30363D"/>
  <image href="https://skillicons.dev/icons?i=docker&amp;theme=dark" x="64" y="561" width="44" height="44"/>
  <text x="122" y="579" fill="#E6EDF3" font-family="-apple-system,BlinkMacSystemFont,'Segoe UI',Helvetica,Arial,sans-serif" font-size="15" font-weight="700">Docker</text>
  <text x="122" y="599" fill="#8B949E" font-family="-apple-system,BlinkMacSystemFont,'Segoe UI',Helvetica,Arial,sans-serif" font-size="11">containers</text>

  <rect x="272" y="547" width="204" height="72" rx="11" fill="#161B22" stroke="#30363D"/>
  <image href="https://skillicons.dev/icons?i=aws&amp;theme=dark" x="284" y="561" width="44" height="44"/>
  <text x="342" y="579" fill="#E6EDF3" font-family="-apple-system,BlinkMacSystemFont,'Segoe UI',Helvetica,Arial,sans-serif" font-size="15" font-weight="700">AWS</text>
  <text x="342" y="599" fill="#8B949E" font-family="-apple-system,BlinkMacSystemFont,'Segoe UI',Helvetica,Arial,sans-serif" font-size="11">cloud</text>

  <rect x="492" y="547" width="204" height="72" rx="11" fill="#161B22" stroke="#30363D"/>
  <image href="https://skillicons.dev/icons?i=azure&amp;theme=dark" x="504" y="561" width="44" height="44"/>
  <text x="562" y="579" fill="#E6EDF3" font-family="-apple-system,BlinkMacSystemFont,'Segoe UI',Helvetica,Arial,sans-serif" font-size="15" font-weight="700">Azure</text>
  <text x="562" y="599" fill="#8B949E" font-family="-apple-system,BlinkMacSystemFont,'Segoe UI',Helvetica,Arial,sans-serif" font-size="11">cloud</text>

  <rect x="712" y="547" width="226" height="72" rx="11" fill="#161B22" stroke="#30363D"/>
  <image href="https://skillicons.dev/icons?i=jenkins&amp;theme=dark" x="724" y="561" width="44" height="44"/>
  <text x="782" y="579" fill="#E6EDF3" font-family="-apple-system,BlinkMacSystemFont,'Segoe UI',Helvetica,Arial,sans-serif" font-size="15" font-weight="700">Jenkins</text>
  <text x="782" y="599" fill="#8B949E" font-family="-apple-system,BlinkMacSystemFont,'Segoe UI',Helvetica,Arial,sans-serif" font-size="11">CI / CD</text>

  <g font-family="ui-monospace, SFMono-Regular, Menlo, Monaco, Consolas, monospace" font-size="15">
    <text x="30" y="720" fill="#3FB950">alfonso@github:~$</text>
    <text x="194" y="720" fill="#58A6FF">echo "build · deploy · create"</text>
  </g>
</svg>
